<svg width="65" height="64" viewBox="0 0 65 64" fill="none" xmlns="http://www.w3.org/2000/svg">
<path d="M0.279999 64V63.36L1.56562 62.912C3.02266 62.4427 3.75118 61.2267 3.75118 59.264V26.496C3.75118 25.6427 3.64405 24.96 3.42978 24.448C3.25836 23.936 2.76554 23.5093 1.95131 23.168L0.279999 22.4V21.76H12.6863L24.5783 52.736L35.7632 21.76H48.4266V22.4L47.3981 22.784C46.5839 23.0827 46.0268 23.5093 45.7268 24.064C45.4269 24.576 45.2769 25.2587 45.2769 26.112V59.584C45.2769 60.4373 45.384 61.0987 45.5983 61.568C45.8125 62.0373 46.3268 62.4427 47.141 62.784L48.4266 63.36V64H32.4206V63.36L33.7705 62.784C34.5847 62.4427 35.099 62.0373 35.3133 61.568C35.5275 61.0987 35.6347 60.4373 35.6347 59.584V45.184L35.7632 26.88L22.3285 64H19.1144L5.10109 27.328L5.29393 43.264V59.392C5.29393 60.3307 5.4225 61.0987 5.67962 61.696C5.9796 62.2507 6.53671 62.656 7.35093 62.912L8.76512 63.36V64H0.279999Z" fill="#CA4116"/>
<g clip-path="url(#clip0)">
<path d="M40.6482 5.46249C40.6482 14.191 35.9104 22 29.2287 22C35.9104 22 40.6482 29.8095 40.6482 38.5375C40.6482 29.8095 45.386 22 52.0677 22C45.386 22 40.6482 14.191 40.6482 5.46249Z" fill="#CA4116"/>
<path d="M57.9373 25C57.9373 29.3648 55.5692 33.2687 52.2273 33.2687C55.5692 33.2687 57.9373 37.1738 57.9373 41.5375C57.9373 37.1738 60.3053 33.2687 63.6473 33.2687C60.3053 33.2687 57.9373 29.3648 57.9373 25Z" fill="#CA4116"/>
<path d="M56.2449 0C56.2449 6.14138 52.9125 11.6358 48.2097 11.6358C52.9117 11.6358 56.2449 17.131 56.2449 23.2716C56.2449 17.131 59.5772 11.6358 64.28 11.6358C59.5772 11.6358 56.2449 6.14138 56.2449 0Z" fill="#CA4116"/>
</g>
<defs>
<clipPath id="clip0">
<rect width="35.1538" height="42" fill="white" transform="translate(29.1262)"/>
</clipPath>
</defs>
</svg>
