<svg width="30" height="30" viewBox="0 0 30 30" fill="none" xmlns="http://www.w3.org/2000/svg">
<path d="M8.9086 3.1875C8.9086 9.42214 5.53928 15 0.787506 15C5.53928 15 8.9086 20.5783 8.9086 26.8125C8.9086 20.5783 12.2779 15 17.0297 15C12.2779 15 8.9086 9.42214 8.9086 3.1875Z" fill="#CA4116"/>
<path d="M19.7062 17.4001C19.7062 20.5179 18.0222 23.3064 15.6455 23.3064C18.0222 23.3064 19.7062 26.0957 19.7062 29.2126C19.7062 26.0957 21.3903 23.3064 23.767 23.3064C21.3903 23.3064 19.7062 20.5179 19.7062 17.4001Z" fill="#CA4116"/>
<path d="M25.1521 0.787598C25.1521 3.90492 23.4681 6.69385 21.0914 6.69385C23.4677 6.69385 25.1521 9.48317 25.1521 12.6001C25.1521 9.48317 26.8362 6.69385 29.2129 6.69385C26.8362 6.69385 25.1521 3.90492 25.1521 0.787598Z" fill="#CA4116"/>
</svg>
